<?xml version="1.0" encoding="utf-8"?>
<!-- Generator: Adobe Illustrator 23.0.5, SVG Export Plug-In . SVG Version: 6.00 Build 0)  -->
<svg version="1.1" id="Layer_1" xmlns="http://www.w3.org/2000/svg" xmlns:xlink="http://www.w3.org/1999/xlink" x="0px" y="0px"
	 viewBox="10 100 1010 400" style="enable-background:new 10 100 1010 400 ;" xml:space="preserve">
<style type="text/css">
	.st0{fill:#FFFFFF;}
	.st1{display:none;}
	.st2{display:inline;fill:none;stroke:#FF0000;stroke-miterlimit:10;}
	.st3{display:inline;}
	.st4{fill:none;stroke:#FF0000;stroke-miterlimit:10;}
	.st5{fill:#7F0000;}
</style>
<rect class="st0" width="1106.73" height="727.42"/>
<g class="st1">
	<rect x="12.67" y="8.89" class="st2" width="1082.06" height="355.11"/>
	<g class="st3">
		<rect x="12.67" y="364" class="st4" width="1082.06" height="355.11"/>
		<rect x="553.36" y="8.22" class="st4" width="540.69" height="710.89"/>
		<rect x="12.67" y="8.22" class="st4" width="540.69" height="710.89"/>
	</g>
</g>
<g>
	<g>
		<path class="st5" d="M649.08,407.75h-1.92v-14.59h1.92V407.75z"/>
		<path class="st5" d="M670.9,394.9h-4.83v12.85h-1.93V394.9h-4.8v-1.74h11.56V394.9z"/>
		<path class="st5" d="M704.81,397.58h-1.98c-0.03-0.46-0.15-0.88-0.36-1.25c-0.22-0.37-0.49-0.69-0.84-0.95
			c-0.35-0.26-0.75-0.46-1.22-0.6c-0.46-0.14-0.96-0.21-1.5-0.21c-0.74,0-1.4,0.13-1.99,0.39c-0.59,0.26-1.1,0.64-1.51,1.13
			c-0.42,0.5-0.74,1.11-0.96,1.84c-0.22,0.73-0.34,1.57-0.34,2.52c0,0.94,0.11,1.78,0.34,2.51c0.22,0.73,0.54,1.35,0.96,1.85
			c0.41,0.5,0.91,0.88,1.5,1.14c0.59,0.26,1.24,0.39,1.97,0.39c0.57,0,1.09-0.07,1.55-0.21c0.47-0.14,0.87-0.35,1.22-0.62
			c0.34-0.28,0.62-0.61,0.82-1.01c0.21-0.4,0.33-0.86,0.37-1.38h1.98c-0.07,0.77-0.26,1.46-0.58,2.07c-0.32,0.6-0.74,1.12-1.26,1.53
			c-0.52,0.42-1.13,0.74-1.82,0.96c-0.69,0.22-1.44,0.33-2.25,0.33c-1.04,0-1.98-0.18-2.82-0.53c-0.84-0.35-1.56-0.86-2.14-1.52
			c-0.59-0.66-1.04-1.46-1.36-2.39c-0.32-0.93-0.48-1.97-0.48-3.12s0.16-2.19,0.48-3.12c0.32-0.93,0.78-1.73,1.37-2.38
			c0.59-0.66,1.3-1.16,2.14-1.52c0.84-0.36,1.77-0.54,2.81-0.54c0.77,0,1.5,0.11,2.19,0.34c0.68,0.22,1.29,0.54,1.82,0.95
			c0.53,0.41,0.96,0.9,1.3,1.48C704.54,396.24,704.74,396.88,704.81,397.58z"/>
		<path class="st5" d="M721.75,392.91c1.01,0,1.94,0.18,2.8,0.54c0.85,0.36,1.59,0.87,2.21,1.53c0.62,0.66,1.1,1.45,1.45,2.38
			c0.35,0.93,0.52,1.96,0.52,3.08c0,1.12-0.17,2.14-0.51,3.07c-0.34,0.92-0.82,1.72-1.44,2.39c-0.61,0.67-1.35,1.18-2.2,1.55
			c-0.85,0.37-1.79,0.55-2.82,0.55c-1.02,0-1.96-0.18-2.82-0.55c-0.85-0.36-1.59-0.88-2.21-1.54c-0.62-0.66-1.1-1.46-1.44-2.39
			c-0.34-0.93-0.51-1.96-0.51-3.08c0-1.13,0.17-2.17,0.52-3.09c0.35-0.93,0.83-1.72,1.45-2.38c0.62-0.66,1.35-1.17,2.21-1.52
			C719.81,393.09,720.75,392.91,721.75,392.91z M721.74,406.35c0.73,0,1.4-0.13,2.01-0.4c0.61-0.27,1.14-0.66,1.58-1.16
			s0.79-1.12,1.03-1.85c0.25-0.73,0.37-1.56,0.37-2.49s-0.13-1.76-0.37-2.49c-0.25-0.73-0.6-1.34-1.04-1.84
			c-0.44-0.5-0.96-0.88-1.57-1.14c-0.61-0.26-1.26-0.39-1.97-0.39c-0.73,0-1.4,0.13-2.01,0.4c-0.61,0.26-1.14,0.65-1.59,1.15
			c-0.45,0.51-0.79,1.12-1.04,1.85s-0.37,1.55-0.37,2.47c0,0.93,0.12,1.76,0.37,2.49c0.25,0.73,0.59,1.35,1.03,1.85
			s0.97,0.89,1.58,1.16S721.02,406.35,721.74,406.35z"/>
		<path class="st5" d="M750.72,407.75h-1.98l-7.66-11.5v11.5h-1.83v-14.59h2l7.62,11.53v-11.53h1.85V407.75z"/>
		<path class="st5" d="M767.44,408.01c-1.03,0-1.93-0.12-2.7-0.37c-0.77-0.24-1.41-0.58-1.92-1.02s-0.9-0.96-1.17-1.56
			c-0.26-0.6-0.41-1.27-0.43-2h1.86c0.05,0.55,0.2,1.03,0.44,1.44c0.24,0.4,0.55,0.74,0.93,1.01c0.38,0.26,0.82,0.46,1.31,0.59
			s1.02,0.19,1.58,0.19c0.54,0,1.04-0.06,1.49-0.17c0.44-0.11,0.83-0.28,1.14-0.5c0.32-0.22,0.56-0.48,0.73-0.78
			c0.17-0.3,0.26-0.65,0.26-1.03c0-0.4-0.08-0.74-0.24-1.02c-0.16-0.28-0.42-0.52-0.77-0.73s-0.83-0.39-1.4-0.56
			s-1.29-0.34-2.14-0.51c-0.82-0.18-1.52-0.4-2.12-0.64c-0.59-0.24-1.08-0.52-1.46-0.84c-0.38-0.32-0.66-0.69-0.85-1.1
			s-0.28-0.89-0.28-1.44c0-0.58,0.13-1.12,0.37-1.62c0.25-0.5,0.61-0.93,1.06-1.28c0.46-0.36,1-0.64,1.64-0.84
			c0.64-0.2,1.34-0.3,2.12-0.3c0.82,0,1.56,0.1,2.24,0.3c0.67,0.2,1.26,0.49,1.75,0.87c0.49,0.38,0.87,0.84,1.15,1.38
			c0.28,0.54,0.43,1.15,0.45,1.84h-1.87c-0.2-1.76-1.41-2.64-3.62-2.64c-1.08,0-1.92,0.2-2.5,0.6c-0.59,0.4-0.88,0.95-0.88,1.63
			c0,0.31,0.05,0.57,0.16,0.79c0.11,0.22,0.29,0.41,0.55,0.58c0.26,0.16,0.61,0.32,1.03,0.45c0.43,0.14,0.96,0.27,1.6,0.4
			c0.44,0.09,0.88,0.18,1.34,0.29c0.46,0.1,0.91,0.23,1.35,0.38c0.44,0.15,0.85,0.33,1.24,0.55c0.39,0.21,0.73,0.47,1.02,0.77
			c0.29,0.3,0.52,0.66,0.69,1.07c0.17,0.41,0.26,0.89,0.26,1.45c0,0.64-0.13,1.23-0.4,1.77c-0.27,0.54-0.65,1-1.13,1.39
			c-0.48,0.39-1.05,0.69-1.72,0.91C768.94,407.9,768.22,408.01,767.44,408.01z"/>
		<path class="st5" d="M789.22,408.01c-0.9,0-1.67-0.09-2.3-0.27c-0.63-0.18-1.16-0.43-1.59-0.74c-0.43-0.31-0.76-0.68-1-1.1
			c-0.24-0.42-0.43-0.87-0.55-1.34c-0.12-0.48-0.2-0.97-0.24-1.47c-0.03-0.5-0.05-1-0.05-1.49v-8.43h1.94v8.4
			c0,0.98,0.08,1.78,0.25,2.39c0.17,0.61,0.41,1.09,0.74,1.43c0.32,0.34,0.72,0.58,1.19,0.7c0.47,0.13,1.01,0.19,1.63,0.19
			c0.62,0,1.16-0.06,1.63-0.19c0.47-0.13,0.87-0.36,1.19-0.71c0.32-0.35,0.56-0.83,0.72-1.44c0.16-0.61,0.24-1.4,0.24-2.38v-8.4
			h1.94v8.43c0,1.01-0.09,1.91-0.26,2.7c-0.17,0.79-0.48,1.46-0.91,2.01c-0.43,0.55-1.02,0.97-1.76,1.26
			C791.29,407.86,790.35,408.01,789.22,408.01z"/>
		<path class="st5" d="M815.19,407.75h-9.04v-14.59h1.94v12.85h7.1V407.75z"/>
		<path class="st5" d="M835.83,394.9h-4.83v12.85h-1.93V394.9h-4.8v-1.74h11.56V394.9z"/>
		<path class="st5" d="M857.85,407.75h-2.19l-1.69-4.43h-6.11l-1.61,4.43h-2.03l5.59-14.59h2.1L857.85,407.75z M853.41,401.77
			l-2.57-6.75l-2.44,6.75H853.41z"/>
		<path class="st5" d="M878.88,407.75h-1.98l-7.66-11.5v11.5h-1.83v-14.59h2l7.62,11.53v-11.53h1.85V407.75z"/>
		<path class="st5" d="M900.47,394.9h-4.83v12.85h-1.93V394.9h-4.8v-1.74h11.56V394.9z"/>
	</g>
	<path d="M484.65,367.84c0-2.19,2.29-3.93,4.7-3.93c0.55,0,0.98,0.11,1.53,0.22c1.96,0.76,2.62,1.97,2.62,3.17
		c0,2.07-1.86,4.15-2.73,4.15C488.58,370.89,484.65,371.22,484.65,367.84z"/>
	<path d="M750.9,333.31c0-1.2,0.98-1.75,2.08-1.75c1.53,0,3.49,1.2,3.49,3.6c0,1.42-1.42,1.86-2.08,1.86
		C753.2,337.02,750.9,334.95,750.9,333.31z"/>
	<g>
		<path d="M771.3,336.61c6.35-2.53,12.86-4.68,19.21-7.21c0.69-0.27-0.73-1.26-0.92-1.38c-0.58-0.37-1.75-1.04-2.48-0.75
			c-6.35,2.53-12.86,4.68-19.21,7.21c-0.69,0.27,0.73,1.26,0.92,1.38C769.4,336.23,770.56,336.9,771.3,336.61L771.3,336.61z"/>
	</g>
	<g>
		<path d="M598.75,322.5c1.49-0.38,2.41-1.75,3.27-2.92c1.46-1.99,2.81-4.06,4.14-6.14c2.07-3.21,4.08-6.46,6.06-9.73
			c1.13-1.87-3.03-1.58-3.82-0.53c-9.41,12.46-18.69,25.03-27.85,37.68c-6.56,9.06-13.08,18.16-19.31,27.44
			c-2.28,3.4-4.55,6.82-6.63,10.35c-1.08,1.82-2.72,4.09-3.04,6.25c-0.45,3.07,3.45,1.94,4.99,0.96c3.33-2.1,6.17-5.24,8.93-8.01
			c1.84-1.84-2.39-2.07-3.56-0.89c-2.41,2.42-4.83,4.91-7.58,6.95c-0.47,0.35-0.56,0.38-0.57,0.37c-0.05-0.08,0.45-0.08,0.12-0.04
			c0.72-0.07,1.29,0.24,1.86,0.25c0.3,0.01-0.14,0.34,0.1,0.13c0.1-0.09,0.24-0.9,0.15-0.64c0.74-2.26,2.22-4.4,3.44-6.42
			c2.08-3.41,4.28-6.73,6.52-10.04c11.65-17.26,24.06-34.03,36.49-50.74c3.16-4.25,6.32-8.49,9.51-12.71
			c-1.27-0.18-2.55-0.35-3.82-0.53c-1.59,2.63-3.21,5.25-4.86,7.85c-1.25,1.97-2.51,3.93-3.82,5.86c-0.47,0.69-0.94,1.38-1.45,2.04
			c-0.18,0.23-0.43,0.47-0.58,0.73c-0.42,0.76-1.15,0.37,0.55-0.06C595.35,320.63,596.13,323.17,598.75,322.5L598.75,322.5z"/>
	</g>
	<g>
		<path d="M684.56,353.13c-33.23-0.34-66.38-0.21-99.6-0.94c-22.3-0.5-43.84-0.58-65.77-5.14c-7.94-1.65-27.75-6.8-25.48-18.78
			c1.06-5.56,5.8-10.07,9.87-13.62c4.1-3.58,8.58-6.72,13.24-9.53c10.95-6.62,22.83-11.63,34.92-15.75
			c25.95-8.84,53.83-14,81.29-13.94c11.31,0.02,22.92,0.91,33.79,4.24c7.86,2.41,16.07,6.31,20.73,13.4
			c4.74,7.2,4.05,16.07,1.27,23.87c-4.24,11.88-12.46,22.47-20.75,31.8c-19.54,22-44.34,39.19-70.02,53.26
			c-25,13.7-51.71,24.84-79.33,32c-10.8,2.8-21.87,5.06-33.03,5.79c-7.68,0.51-16.02,0.59-23.33-2.2
			c-5.03-1.92-9.08-5.56-9.63-11.15c-0.74-7.56,3.99-15.24,8.1-21.16c3.47-5,7.42-9.65,11.53-14.13c0.71-0.77-0.61-1.07-1.12-1.09
			c-0.99-0.05-2.19,0.4-2.86,1.13c-7.29,7.93-14.93,16.84-18.58,27.16c-1.96,5.57-2.35,11.99,1.89,16.62
			c4.46,4.88,11.9,6.36,18.18,6.95c10.08,0.95,20.33-0.15,30.27-1.86c27.64-4.76,54.55-14.56,79.85-26.49
			c27.95-13.18,54.94-29.54,77.8-50.47c10.31-9.44,19.84-19.88,27.48-31.62c5.65-8.69,11.06-19.09,9.98-29.8
			c-2-19.71-26.18-25.58-42.32-27.46c-27.5-3.2-56.09,0.8-82.74,7.64c-13.7,3.52-27.23,8.01-40.11,13.9
			c-10.86,4.97-21.58,10.91-30.53,18.9c-4.16,3.71-8.95,8.37-10.13,14.06c-0.94,4.55,1.34,8.42,4.9,11.11
			c5.23,3.94,11.9,5.85,18.17,7.37c9.95,2.41,20.19,3.6,30.37,4.45c24.69,2.07,49.58,2,74.34,2.43c19.28,0.34,38.57,0.62,57.86,0.85
			c2.95,0.04,5.91,0.07,8.86,0.1c1.49,0.02,4.63-2.2,1.74-2.23L684.56,353.13z"/>
	</g>
	<g>
		<path d="M681.14,356.82c5.36-2.37,10.78-4.87,15.71-8.04c1.05-0.67,4.73-2.73,3.62-4.4c-1.23-1.84-6.01-0.62-7.57-0.12
			c-6.2,1.96-11.51,7.15-14.86,12.59c-1.09,1.76-2.68,4.41-2.15,6.6c0.55,2.25,3.29,2.23,5.14,1.97c4.87-0.71,9.4-3.59,13.59-5.96
			c4.46-2.52,8.91-5.13,13.08-8.13c1.7-1.22,3.55-2.53,4.91-4.14c0.26-0.3,0.45-0.65,0.69-0.95c0.26-0.32-0.29,0.36,0.04,0
			c7.25-8.3,15.39-15.93,22.91-23.99c5.05-5.4,10.07-10.84,14.91-16.43c1.72-1.99,3.43-4,5.02-6.09c0.67-0.88,2.16-2.41,2.27-3.59
			c0.3-3.37-6.16,0.51-7.23,1.39c-4.28,3.52-7.86,7.97-11.36,12.24c-9.93,12.13-19.12,24.99-27.42,38.28
			c-2.91,4.66-6.01,9.46-7.99,14.61c-1.11,2.88-1.17,5.51,2.79,4.56c2.57-0.62,4.81-2.45,6.87-3.99c5.04-3.76,9.99-7.97,14-12.84
			c1.08-1.32,4.79-5.37,2.39-6.9c-2.6-1.65-7.99,1.5-10.12,2.64c-0.8,0.43-4.66,2.15-3.72,3.59c0.78,1.2,4.33,0.41,5.39,0.26
			c6.44-0.86,12.82-2.56,19.11-4.17c1.38-0.35,2.77-0.71,4.14-1.08c-0.74-0.26-1.47-0.52-2.21-0.78c-3.01,4.8-6.35,10.17-7.6,15.75
			c-0.57,2.58-0.21,4.86,2.87,4.91c5.08,0.07,10.25-3.98,14.22-6.6c4.96-3.27,9.77-6.82,14.34-10.62c1.78-1.48-2.49-1.12-3.38-0.39
			c-4.1,3.41-8.41,6.61-12.82,9.61c-1.89,1.29-3.82,2.53-5.79,3.69c-1.01,0.6-2.83,2.06-4.08,2.11c-1,0.04-1.24-0.34-1.32-1.51
			c-0.25-3.4,2.21-7.46,3.7-10.35c0.82-1.6,1.69-3.17,2.6-4.72c0.3-0.51,0.6-1.02,0.91-1.53c0.08-0.13,0.55-0.88,0.29-0.47
			c0.79-1.25-1.64-0.93-2.21-0.78c-3.65,0.98-7.32,1.9-11.01,2.76c-2.71,0.64-5.43,1.25-8.17,1.76c-1.12,0.21-2.26,0.41-3.4,0.54
			c-0.33,0.04-0.65,0.06-0.98,0.09c-0.3,0.02-0.65-0.03-0.57,0.01c0.2,0.11-0.12,0.15,0.33-0.05c1.26-0.56,2.44-1.46,3.71-2.05
			c0.23-0.11,1.98-0.96,2.15-0.84c-0.15-0.11,0.01,0.29,0.03,0.36c0.33,0.98-1.23,2.84-1.71,3.51c-3.14,4.31-7.3,7.98-11.42,11.31
			c-1.92,1.55-3.89,3.16-5.99,4.48c-0.23,0.14-0.47,0.27-0.69,0.42c-0.53,0.36-0.42,0.06-0.11,0.11c1.23,0.18,0.91,0.23,0.96-0.9
			c0.05-1.33,0.81-2.79,1.34-3.98c1.94-4.36,4.47-8.49,6.98-12.53c7.2-11.58,15.16-22.75,23.56-33.49c3.46-4.42,7-8.8,10.84-12.88
			c1.28-1.36,2.59-2.73,4.05-3.91c0.4-0.32,1.08-0.79,1.2-0.89c0.34-0.29,0.41-0.13,0.34-0.19c0.4,0.31-2.29,0-2.14-0.09
			c0.07-0.04-0.78,1.63-1.02,1.97c-1.06,1.56-2.28,3.01-3.48,4.46c-3.63,4.37-7.45,8.57-11.28,12.75
			c-8.11,8.85-16.4,17.54-24.74,26.17c-3.69,3.82-5.93,6.63-10.32,9.67c-4.04,2.8-8.3,5.27-12.58,7.66
			c-2.21,1.23-4.43,2.55-6.79,3.49c-0.69,0.27-1.97,0.95-2.77,0.67c-3.65-1.29,2.3-9.01,3.38-10.31c1.88-2.28,4.07-4.41,6.58-6
			c0.48-0.31,4.69-2.68,5.2-1.3c0.7,1.9-11.21,7.04-12.65,7.73c-1.42,0.68-2.79,1.32-4.13,1.92
			C676.78,356.71,679.36,357.61,681.14,356.82L681.14,356.82z"/>
	</g>
	<g>
		<path d="M770.88,351.52c2.05-2.66,4.15-5.43,5.68-8.42c0.46-0.9,1.38-2.4,0.31-3.12c-1.45-0.97-4.56,0.75-5.8,1.48
			c-3.8,2.25-7.3,5.3-10.49,8.34c-2.73,2.6-5.65,5.55-7.33,8.98c-0.82,1.67-1.48,3.92,0.51,4.98c0.89,0.47,2,0.48,2.98,0.47
			c0.78-0.01,1.54-0.12,2.31-0.22c0.51-0.06-0.15,0.01,0.03-0.01c13.28-1.45,26.91-1.11,40.25-1.35
			c23.84-0.42,47.69-0.65,71.54-0.85c23.46-0.2,46.91-0.34,70.37-0.45c12.09-0.06,24.19,0.08,36.28-0.15c0.17,0,0.34,0,0.51,0
			c0.84,0,2.46-0.13,3.05-0.82c0.4-0.47,0.82-0.97-0.26-0.97c-9.16,0.03-18.33,0.06-27.49,0.1c-21.08,0.09-42.15,0.21-63.23,0.37
			c-23.63,0.17-47.25,0.38-70.88,0.71c-16.92,0.24-33.86,0.39-50.77,1.14c-2.04,0.09-4.08,0.18-6.12,0.36
			c-2.51,0.21-6.64,1.05-5.3-2.97c1.13-3.38,4.04-6.27,6.5-8.71c1.8-1.78,3.7-3.46,5.67-5.05c0.99-0.8,1.99-1.58,3.02-2.32
			c0.57-0.41,1.74-0.9,2.17-1.44c0.72-0.91-1.3-0.06-1.35-0.01c-0.05,0.06,0.05,0.44-0.02,0.56c-0.42,0.68-0.65,1.59-1.05,2.31
			c-1,1.78-2.18,3.47-3.37,5.13c-0.64,0.9-1.3,1.79-1.98,2.67c-0.49,0.63,1.59,0.46,1.73,0.44
			C769.23,352.57,770.31,352.25,770.88,351.52L770.88,351.52z"/>
	</g>
	<g>
		<path d="M998.04,361.99c1.75,0,4.68-0.65,5.74-2.21c1.1-1.62-0.95-1.98-2.19-1.98c-1.75,0-4.68,0.65-5.74,2.21
			C994.75,361.63,996.8,361.99,998.04,361.99L998.04,361.99z"/>
	</g>
	<g>
		<path d="M407,519.03c-8.02,6.89-16.36,13.97-25.62,19.11c-1.52,0.84-2.87,1.52-4.01,1.98c-0.33,0.13-0.66,0.26-0.99,0.38
			c-0.53,0.2-0.61,0.21-0.48,0.17c-0.27,0.08-0.54,0.16-0.82,0.23c-0.83,0.21,0.03,0.01-0.41,0.1c-0.24,0.05-0.48,0.09-0.72,0.11
			c-0.47,0.04,0.42,0-0.28,0.02c-0.64,0.02-0.07,0.12-0.92-0.06c-0.23-0.05-1-0.27-1.48-0.67c-2.93-2.46-1.98-8.06-1.29-11.54
			c1.59-8,4.72-15.73,7.9-23.21c4.63-10.85,9.89-21.43,15.34-31.89c6.74-12.92,13.85-25.65,21.14-38.27
			c8.21-14.21,16.65-28.29,25.26-42.26c9.1-14.78,18.39-29.44,27.83-44.01c9.36-14.45,18.86-28.8,28.51-43.06
			c9.11-13.45,18.34-26.81,27.75-40.04c8.19-11.53,16.51-22.97,25.05-34.24c6.74-8.9,13.61-17.73,20.82-26.26
			c4.57-5.4,9.59-11.29,14.73-15.71c0.83-0.72,1.69-1.4,2.58-2.03c0.75-0.54,0.2-0.15,0.79-0.5c0.15-0.09,0.31-0.17,0.47-0.25
			c0.35-0.19-0.47,0.35,0.07-0.02c-0.07,0.05-0.68,0.05-0.59,0.1c0.29,0.15,0.44,0.01,0.51,0.76c0.13,1.38-1.81,3.73-2.82,5.02
			c-2.48,3.17-5.29,6.08-8.11,8.94c-9.11,9.23-18.81,17.89-28.52,26.48c-13.07,11.57-26.33,22.92-39.62,34.23
			c-14.54,12.38-29.13,24.7-43.69,37.05c-13.87,11.76-27.71,23.55-41.43,35.49c-11.06,9.63-22.07,19.33-32.7,29.44
			c-6.1,5.8-12.95,11.78-17.53,18.93c-0.76,1.19-2.24,3.33-1.16,4.73c2.06,2.67,6.98-0.02,8.44-2.01c2.91-3.97,3.85-9.63,4.81-14.32
			c1.57-7.75,2.55-15.62,3.41-23.47c1.86-17.1,2.94-34.28,4-51.45c0.32-5.24,0.56-10.5,1.07-15.73c0.06-0.62,0.2-1.26,0.22-1.88
			c0-0.17,0.11-0.35,0.1-0.52c0-0.06,0.05-0.12,0.05-0.17c0-0.02,0.03-0.04,0.02-0.06c0.03-0.06,0-0.03-0.06,0.09
			c-0.76,1.25-2.16,1.58-4.19,0.98c0.06-0.31,0.08,0.36,0.06,0.62c-0.04,0.52,0.05,0.85-0.02,1.36c-0.54,3.77-2.88,7.57-4.64,10.86
			c-3.2,5.98-6.75,11.77-10.35,17.5c-9.34,14.85-19.22,29.36-29.15,43.82c-8.94,13.02-18.02,25.95-26.93,38.99
			c-2.61,3.82-5.25,7.62-7.67,11.56c-0.43,0.7-1.38,1.79-1.47,2.63c-0.2,1.68,2.02,1.2,3.15,0.75c2.74-1.1,4.9-4.46,6.73-6.59
			c2.02-2.35,4.97-4.68,7.41-6.98c5.16-4.86,10.14-9.94,14.74-15.34c4.69-5.51,9.38-11.52,12.12-18.28
			c1.91-4.72,2.75-10.53-1.38-14.34c-6.1-5.63-17.16-4.97-24.72-4.48c-10.67,0.69-21.32,1.86-31.97,2.84
			c-15.02,1.38-30.04,2.74-45.06,4.04c-17.54,1.52-35.09,2.95-52.65,4.23c-17.73,1.3-35.48,2.45-53.24,3.31
			c-15.67,0.76-31.36,1.32-47.05,1.26c-11.02-0.04-22.22-0.17-33.13-1.95c-3.2-0.52-12.19-1.77-11.92-5.89
			c0.14-2.14,2.27-3.68,3.85-4.86c3.66-2.72,7.93-4.77,12.12-6.69c15.97-7.31,32.88-12.69,49.6-17.95c0.48-0.15,2.3-0.7,2.03-1.5
			c-0.27-0.79-2-0.45-2.51-0.29c-17.49,5.5-35.14,11.13-51.83,18.81c-4.39,2.02-8.81,4.19-12.73,7.04
			c-1.89,1.38-4.39,3.27-4.97,5.69c-1.2,5.03,7.48,6.6,10.69,7.26c10.32,2.12,21.1,2.29,31.6,2.44c15.23,0.22,30.47-0.24,45.68-0.9
			c17.7-0.77,35.39-1.87,53.06-3.12c17.88-1.27,35.75-2.7,53.6-4.22c15.51-1.32,31.01-2.72,46.51-4.14
			c10.86-1,21.72-2.03,32.59-2.95c7.71-0.65,18.29-1.99,25.09,2.79c4.89,3.44,4.23,9.33,2.23,14.27
			c-2.78,6.85-7.59,12.88-12.37,18.43c-4.61,5.34-9.58,10.38-14.74,15.2c-2.48,2.31-5.08,4.42-7.3,6.99
			c-1.22,1.4-2.44,2.81-3.73,4.14c-0.37,0.38-0.73,0.6-0.72,0.67c-0.04-0.29,3.58-0.21,3.69-0.33c0.59-0.62,0.99-1.87,1.45-2.61
			c1.01-1.63,2.07-3.22,3.13-4.82c3.39-5.08,6.86-10.09,10.33-15.11c9.78-14.15,19.62-28.25,29.27-42.49
			c9.33-13.76,18.65-27.58,27.1-41.91c2.74-4.64,5.5-9.35,7.59-14.32c0.62-1.46,2.45-5.24,1.24-6.86c-1.1-1.47-4.22-0.08-4.75,1.42
			c-0.42,1.19-0.33,2.76-0.44,3.99c-0.47,5.82-0.78,11.65-1.14,17.47c-1.09,17.61-2.23,35.24-4.33,52.77
			c-0.9,7.49-1.91,15.01-3.67,22.36c-0.62,2.57-1.31,5.16-2.35,7.6c-0.34,0.8-0.71,1.61-1.2,2.33c-0.21,0.31-0.47,0.59-0.7,0.88
			c-0.23,0.3-0.33,0.2-0.22,0.22c-0.07-0.01,1.55-0.39,1.49-0.31c0.03-0.04-0.32,0.02-0.39-0.13c-0.2-0.4-0.2-0.05-0.34-0.37
			c-0.21-0.51,0.02-1.02,0.31-1.71c0.99-2.41,3.08-4.64,4.86-6.68c7.36-8.41,15.75-15.98,24.01-23.49
			c12.14-11.04,24.55-21.78,37-32.46c14.45-12.4,28.99-24.7,43.52-37c14.35-12.16,28.71-24.31,42.97-36.58
			c12.13-10.44,24.22-20.94,36.03-31.74c7.82-7.15,15.85-14.36,22.69-22.49c1.45-1.73,7.66-8.69,2.21-9.33
			c-4.7-0.55-9.03,3.74-12.12,6.67c-5.87,5.57-11.1,11.82-16.24,18.05c-7.53,9.14-14.74,18.55-21.83,28.03
			c-8.82,11.81-17.43,23.78-25.92,35.84c-9.51,13.51-18.85,27.14-28.06,40.86c-9.69,14.44-19.24,28.98-28.63,43.62
			c-9.35,14.57-18.54,29.23-27.55,44.02c-8.43,13.84-16.71,27.79-24.72,41.88c-7,12.32-13.81,24.74-20.22,37.38
			c-5.08,10-9.96,20.14-14.09,30.58c-2.66,6.72-5.37,13.82-6.12,21.06c-0.36,3.51-0.37,8.38,3.62,9.82
			c5.29,1.91,12.06-1.81,16.48-4.35c9.19-5.31,17.49-12.2,25.51-19.1C412.4,517.85,407.92,518.24,407,519.03L407,519.03z"/>
	</g>
</g>
</svg>
